<svg xmlns="http://www.w3.org/2000/svg" width="500" height="500" viewBox="0 0 500 500"><path fill="#00ddff" d="m 82,162 c 17.7,0 32,14.3 32,32 v 256 c 0,17.7 -14.3,32 -32,32 H 34 C 16.3,482 2,467.7 2,450 V 194 C 2,176.3 16.3,162 34,162 Z M 272.6,18 c 27.3,0 49.4,22.1 49.4,49.4 v 4.2 c 0,6.8 -1.3,13.6 -3.8,19.9 L 290,162 h 160 c 26.5,0 48,21.5 48,48 0,19.7 -11.9,36.6 -28.9,44 17,7.4 28.9,24.3 28.9,44 0,23.4 -16.8,42.9 -39,47.1 4.4,7.3 7,15.8 7,24.9 0,22.2 -15,40.8 -35.4,46.3 2.2,5.5 3.4,11.5 3.4,17.7 0,26.5 -21.5,48 -48,48 h -87.9 c -36.3,0 -71.6,-12.4 -99.9,-35.1 L 186,437.2 c -15.2,-12.1 -24,-30.5 -24,-50 V 200.6 c 0,-14.9 3.5,-29.6 10.1,-42.9 L 228.3,45.3 C 236.7,28.6 253.8,18 272.6,18 Z" /></svg>
