<svg xmlns="http://www.w3.org/2000/svg" width="500" height="500" viewBox="0 0 500 500"><path fill="#0df" d="M74.11 490c18.47 0 32-13.52 32-32V185.95c0-18.47-13.53-32-32-32H42.1c-18.48 0-32 13.53-32 32V458c0 18.48 13.52 32 32 32zM157.88 218.38c0-10.02 3.4-25.89 8.4-37.69l57.27-135.31c15.18-35.86 52.52-42.66 76.88-28.06s38.04 48.81 24.37 81.28L302.75 151c-2.66 6.33-7.93 19-7.93 19H442.2c1.64 0 4.9.27 4.9.27 34.13 1.93 56.96 52.02 34.05 83l-7.4 10 7.4 10c13.17 17.82 12.43 50.73-5.6 67.62l-7.77 7.28 3.77 10.5c7.13 19.86-1.31 50.72-21.85 61.67l-8.82 4.7.82 10.85c2.15 28.5-19.67 52.48-42.7 53.78l-4.9.28H290c-18.4 0-30.65-3.66-46-10.22-7.84-3.36-15.13-8.14-22.55-12.5-39.84-23.42-63.57-69.16-63.57-119.5z"/></svg>