<svg xmlns="http://www.w3.org/2000/svg" width="500" height="500" viewBox="0 0 500 500"><path fill="#00ddff" d="m 82,338 c 17.7,0 32,-14.3 32,-32 V 50 C 114,32.3 99.7,18 82,18 H 34 C 16.3,18 2,32.3 2,50 v 256 c 0,17.7 14.3,32 32,32 z m 190.6,144 c 27.3,0 49.4,-22.1 49.4,-49.4 v -4.2 c 0,-6.8 -1.3,-13.6 -3.8,-19.9 L 290,338 h 160 c 26.5,0 48,-21.5 48,-48 0,-19.7 -11.9,-36.6 -28.9,-44 17,-7.4 28.9,-24.3 28.9,-44 0,-23.4 -16.8,-42.9 -39,-47.1 4.4,-7.3 7,-15.8 7,-24.9 C 466,107.8 451,89.2 430.6,83.7 432.8,78.2 434,72.2 434,66 434,39.5 412.5,18 386,18 h -87.9 c -36.3,0 -71.6,12.4 -99.9,35.1 L 186,62.8 c -15.2,12.1 -24,30.5 -24,50 v 186.6 c 0,14.9 3.5,29.6 10.1,42.9 l 56.2,112.4 c 8.4,16.7 25.5,27.3 44.3,27.3 z" /></svg>
