<svg xmlns="http://www.w3.org/2000/svg" width="500" height="500" viewBox="0 0 500 500"><path fill="#ffffff" opacity="0.3" d="m 181.6,48.751789 c 20.8,-34.8 65,-48.8000001 102.5,-31.2 l 7.2,3.8 c 34.8,20.9 48.8,65.1 31.2,102.600001 v 0 l -14.1,30 h 109.7 l 7.4,0.4 c 36.3,3.7 64.6,34.4 64.6,71.6 0,13.2 -3.6,25.4 -9.8,36 6.1,10.6 9.7,22.8 9.8,36 0,18.3 -6.9,34.8 -18,47.5 1.3,5.3 2,10.8 2,16.5 0,25.1 -12.9,47 -32.2,59.9 -1.9,35.5 -29.4,64.2 -64.4,67.7 l -7.4,0.4 H 266 c -18,0 -35.9,-3.4 -52.6,-9.9 l -7.1,-3 -0.7,-0.3 -6.6,-3.2 -0.7,-0.3 -12.2,-6.5 c -12.3,-6.5 -23.3,-14.7 -32.9,-24.1 -4.1,26.9 -27.3,47.4 -55.3,47.4 h -32 c -30.9,0 -56,-25.1 -56,-56 l 0.2,-224.1 c 0,-30.9 25.1,-56 56,-56 h 32 c 10.8,0 20.9,3.1 29.5,8.5 l 50.1,-106.500001 0.6,-1.2 2.7,-5 0.6,-0.9 z M 66.1,201.95179 c -4.4,0 -8,3.6 -8,8 v 224 c 0,4.4 3.6,8 8,8 h 32 c 4.4,0 8,-3.6 8,-8 v -224 c 0,-4.4 -3.6,-8 -8,-8 z M 263.7,60.951789 c -14.8,-6.9 -32.3,-1.6 -40.7,12 l -2.2,4 L 164,197.85179 c -3.5,7.5 -5.5,15.5 -6,23.7 l -0.1,4.2 v 112.9 l 0.2,7.9 c 2.4,32.7 21.4,62.1 50.7,77.7 l 11.5,6.1 6.3,3.1 c 12.4,5.6 25.8,8.5 39.4,8.5 h 104.1 l 2.4,-0.1 c 12.1,-1.2 21.6,-11.5 21.6,-23.9 l -0.2,-2.6 c -0.1,-0.9 -0.2,-1.7 -0.4,-2.6 -2.7,-12.1 4.3,-24.2 16,-28 9.7,-3.1 16.6,-12.2 16.6,-22.8 0,-4.3 -1.1,-8.2 -3.1,-11.8 -6.3,-11.1 -2.8,-25.2 8,-32 6.8,-4.3 11.2,-11.8 11.2,-20.2 0,-7.1 -3.1,-13.5 -8.2,-18 -5.2,-4.6 -8.2,-11.1 -8.2,-18 0,-6.9 3,-13.4 8.2,-18 5.1,-4.5 8.2,-10.9 8.2,-18 l -0.1,-2.4 c -1.1,-11.3 -10.1,-20.3 -21.4,-21.4 l -2.4,-0.1 H 270.8 c -8.2,0 -15.8,-4.2 -20.2,-11.1 -4.4,-6.9 -5,-15.7 -1.5,-23.1 l 30,-64.3 c 7,-15.000001 1.4,-32.700001 -12.5,-41.000001 z" /></svg>
